[img]http://a.imageshack.us/img72/21/seangarrett3.png[/img]

[img]http://a.imageshack.us/img843/6411/seangarrett2.png[/img]

[img]http://a.imageshack.us/img339/3633/seangarrett4.png[/img]


[code]General
Complete name                    : Sean Garrett ft Tyga and Gucci Mane - She Geeked [KingPinVideos].mpg
Format                           : MPEG-PS
File size                        : 80.8 MiB
Duration                         : 3mn 57s
Overall bit rate                 : 2 857 Kbps
Writing library                  : encoded by TMPGEnc 4.0 XPress Version. 4.7.4.299

Video
ID                               : 224 (0xE0)
Format                           : MPEG Video
Format version                   : Version 1
Format settings, BVOP            : Yes
Format settings, Matrix          : Default
Duration                         : 3mn 57s
Bit rate mode                    : Constant
Bit rate                         : 2 616 Kbps
Nominal bit rate                 : 2 700 Kbps
Width                            : 384 pixels
Height                           : 208 pixels
Display aspect ratio             : 16:9
Frame rate                       : 29.970 fps
Resolution                       : 8 bits
Scan type                        : Progressive
Bits/(Pixel*Frame)               : 1.093
Stream size                      : 73.9 MiB (92%)
Writing library                  : TMPGEnc XPress 4.7.4.299

Audio
ID                               : 192 (0xC0)
Format                           : MPEG Audio
Format version                   : Version 1
Format profile                   : Layer 2
Duration                         : 3mn 57s
Bit rate mode                    : Constant
Bit rate                         : 128 Kbps
Channel(s)                       : 2 channels
Sampling rate                    : 48.0 KHz
Stream size                      : 3.62 MiB (4%)
[/code]
